<?xml version="1.0" standalone="no"?>
<!DOCTYPE svg PUBLIC "-//W3C//DTD SVG 20010904//EN"
 "http://www.w3.org/TR/2001/REC-SVG-20010904/DTD/svg10.dtd">
<svg version="1.0" xmlns="http://www.w3.org/2000/svg"
 width="820.000000pt" height="519.000000pt" viewBox="0 0 820.000000 519.000000"
 preserveAspectRatio="xMidYMid meet">

<g transform="translate(0.000000,519.000000) scale(0.100000,-0.100000)"
fill="#000000" stroke="none">
<path d="M1585 4707 c-50 -169 -69 -387 -69 -802 0 -342 11 -577 39 -900 8
-88 19 -225 25 -305 41 -575 94 -807 261 -1145 93 -189 178 -311 314 -453 173
-181 333 -297 560 -407 264 -129 545 -205 910 -247 149 -17 812 -17 960 0 640
74 1105 277 1451 633 360 371 545 848 584 1504 5 94 16 240 25 325 75 791 68
1502 -20 1798 l-15 51 -55 -19 c-204 -70 -606 -339 -1086 -725 -98 -80 -183
-145 -187 -145 -5 0 -56 22 -113 49 -208 98 -475 183 -694 222 -149 26 -436
36 -588 20 -245 -25 -557 -111 -797 -221 -63 -28 -127 -57 -141 -63 -24 -10
-39 0 -230 153 -485 389 -861 640 -1064 710 l-55 19 -15 -52z m278 -165 c215
-139 269 -179 428 -318 121 -108 312 -301 331 -338 6 -11 -22 11 -63 49 -95
89 -229 197 -394 315 -71 51 -161 119 -200 150 -117 94 -285 220 -295 220 -8
0 -22 -56 -34 -135 -2 -16 -3 13 -2 65 2 98 9 125 30 117 7 -3 96 -59 199
-125z m857 -856 c0 -2 -53 -36 -118 -75 -109 -65 -167 -104 -451 -304 -143
-100 -273 -210 -351 -295 -84 -91 -50 -30 52 93 92 111 243 249 354 321 94 62
276 159 413 221 102 46 101 45 101 39z m3070 -137 c74 -39 166 -91 205 -116
132 -86 305 -249 411 -388 68 -88 63 -96 -12 -19 -43 45 -108 107 -144 137
-59 50 -115 90 -415 302 -55 38 -155 103 -223 143 -67 41 -122 75 -122 77 0 9
172 -70 300 -136z m-2166 -2606 c53 -81 91 -117 155 -146 85 -37 181 4 272
119 28 35 57 64 65 64 8 0 53 -34 100 -76 85 -76 149 -113 192 -114 31 0 91
32 124 67 14 15 44 57 67 93 22 36 41 61 41 56 0 -23 -70 -135 -111 -177 -97
-99 -185 -86 -348 54 l-55 47 -70 -69 c-82 -78 -118 -100 -185 -108 -98 -11
-202 67 -276 209 -44 86 -36 80 29 -19z"/>
</g>
</svg>
